<?xml version="1.0" encoding="UTF-8"?> <svg xmlns="http://www.w3.org/2000/svg" xmlns:xlink="http://www.w3.org/1999/xlink" viewBox="0 0 121.3 62.1"><defs><style>.a{fill:none;}.b{fill:#808285;}.c{fill:url(#a);}.d{fill:url(#b);}.e{fill:url(#c);}.f{fill:url(#d);}.g{fill:url(#e);}.h{fill:url(#f);}.i{fill:url(#g);}.j{fill:url(#h);}.k{clip-path:url(#i);}.l{fill:url(#j);}.m{clip-path:url(#k);}.n{fill:url(#l);}.o{clip-path:url(#m);}.p{fill:url(#n);}.q{clip-path:url(#o);}.r{fill:url(#p);}.s{clip-path:url(#q);}.t{fill:url(#r);}</style><linearGradient id="a" x1="11.99" y1="-1024.27" x2="22.25" y2="-1050.2" gradientTransform="matrix(1, 0, 0, -1, 0, -1014.65)" gradientUnits="userSpaceOnUse"><stop offset="0.4" stop-color="#dca75b"></stop><stop offset="0.72" stop-color="#ffeb9c"></stop><stop offset="0.88" stop-color="#e4b76a"></stop></linearGradient><linearGradient id="b" x1="35.41" y1="-1076.55" x2="29.67" y2="-1051.67" xlink:href="#a"></linearGradient><linearGradient id="c" x1="47.97" y1="-1073.65" x2="42.22" y2="-1048.78" xlink:href="#a"></linearGradient><linearGradient id="d" x1="70.83" y1="-1068.38" x2="65.09" y2="-1043.5" xlink:href="#a"></linearGradient><linearGradient id="e" x1="81.04" y1="-1066.02" x2="75.3" y2="-1041.14" xlink:href="#a"></linearGradient><linearGradient id="f" x1="89.2" y1="-998.92" x2="90.24" y2="-1053.54" gradientTransform="matrix(1, 0, 0, -1, 0, -1014.65)" gradientUnits="userSpaceOnUse"><stop offset="0.4" stop-color="#939598"></stop><stop offset="0.72" stop-color="#e6e7e8"></stop><stop offset="0.88" stop-color="#a7a9ac"></stop></linearGradient><linearGradient id="g" x1="54.79" y1="-987.18" x2="55.84" y2="-1041.81" xlink:href="#f"></linearGradient><linearGradient id="h" x1="102.16" y1="-1010.17" x2="102.36" y2="-1020.55" xlink:href="#f"></linearGradient><clipPath id="i"><circle class="a" cx="81.9" cy="20.3" r="10.8"></circle></clipPath><linearGradient id="j" x1="78.56" y1="-999.1" x2="79.25" y2="-1035.44" xlink:href="#f"></linearGradient><clipPath id="k"><circle class="a" cx="77.3" cy="22.2" r="10.8"></circle></clipPath><linearGradient id="l" x1="-1251.39" y1="-1858.58" x2="-1250.7" y2="-1894.92" gradientTransform="matrix(0.49, -0.87, -0.87, -0.49, -954.52, -1998.29)" xlink:href="#f"></linearGradient><clipPath id="m"><circle class="a" cx="87.3" cy="26.4" r="10.8"></circle></clipPath><linearGradient id="n" x1="-1390.88" y1="1204.27" x2="-1390.18" y2="1167.93" gradientTransform="matrix(-0.49, 0.87, 0.87, 0.49, -1613.71, 656.93)" xlink:href="#f"></linearGradient><clipPath id="o"><circle class="a" cx="77.1" cy="27.3" r="10.8"></circle></clipPath><linearGradient id="p" x1="-2508.26" y1="-1333" x2="-2507.56" y2="-1369.34" gradientTransform="matrix(-0.37, -0.93, -0.93, 0.37, -2118.09, -1797.5)" xlink:href="#f"></linearGradient><clipPath id="q"><circle class="a" cx="86.7" cy="22.1" r="10.8"></circle></clipPath><linearGradient id="r" x1="-134.33" y1="678.64" x2="-133.63" y2="642.3" gradientTransform="matrix(0.37, 0.93, 0.93, -0.37, -462.68, 380.76)" xlink:href="#f"></linearGradient></defs><path class="b" d="M56.3,50.1a2.7,2.7,0,0,1,.8.7,1.82,1.82,0,0,1,0,2,2.7,2.7,0,0,1-.8.7,2.34,2.34,0,0,1-1.2.2H54v1.5H52.8V49.9H55A1.91,1.91,0,0,1,56.3,50.1Zm-.5,2.3a1,1,0,0,0,0-1.4,1.08,1.08,0,0,0-.8-.2H54v1.8h1A.78.78,0,0,0,55.8,52.4Z"></path><path class="b" d="M63.1,49.8v5.3H61.9V53H59.5v2.2H58.3V49.9h1.2V52h2.4V49.9h1.2Z"></path><path class="b" d="M65.4,54.9a2,2,0,0,1-1-1,2.65,2.65,0,0,1,0-2.8,4.74,4.74,0,0,1,1-1,3.71,3.71,0,0,1,1.5-.4,2.6,2.6,0,0,1,1.5.4,2.41,2.41,0,0,1,1,1,2.65,2.65,0,0,1,0,2.8,4.74,4.74,0,0,1-1,1,3.31,3.31,0,0,1-1.5.4A8.33,8.33,0,0,1,65.4,54.9Zm2.4-.9a.9.9,0,0,0,.6-.6,2.13,2.13,0,0,0,0-1.8.9.9,0,0,0-.6-.6,2.35,2.35,0,0,0-.8-.2,1.88,1.88,0,0,0-.8.2.9.9,0,0,0-.6.6,2.12,2.12,0,0,0,0,1.8.9.9,0,0,0,.6.6,2.35,2.35,0,0,0,.8.2A3.09,3.09,0,0,0,67.8,54Z"></path><path class="b" d="M71.8,50.8H70.1v-1h4.6v1H73v4.3H71.8Z"></path><path class="b" d="M76.4,54.9a2,2,0,0,1-1-1,2.65,2.65,0,0,1,0-2.8,4.74,4.74,0,0,1,1-1,3.71,3.71,0,0,1,1.5-.4,2.6,2.6,0,0,1,1.5.4,2.41,2.41,0,0,1,1,1,2.65,2.65,0,0,1,0,2.8,4.74,4.74,0,0,1-1,1,3.31,3.31,0,0,1-1.5.4A5.41,5.41,0,0,1,76.4,54.9Zm2.3-.9a.9.9,0,0,0,.6-.6,2.13,2.13,0,0,0,0-1.8.9.9,0,0,0-.6-.6,2.35,2.35,0,0,0-.8-.2,1.88,1.88,0,0,0-.8.2.9.9,0,0,0-.6.6,2.12,2.12,0,0,0,0,1.8.9.9,0,0,0,.6.6,2.35,2.35,0,0,0,.8.2A1.88,1.88,0,0,0,78.7,54Z"></path><path class="b" d="M85.3,52.4h1.1v2.2a3.13,3.13,0,0,1-1,.5,5,5,0,0,1-1.2.2,2.6,2.6,0,0,1-1.5-.4,2,2,0,0,1-1-1,2.65,2.65,0,0,1,0-2.8,4.74,4.74,0,0,1,1-1,4.19,4.19,0,0,1,1.5-.4,5.07,5.07,0,0,1,1.3.2,3.59,3.59,0,0,1,1,.7l-.8.7a1.82,1.82,0,0,0-1.4-.6,2.92,2.92,0,0,0-.9.2.9.9,0,0,0-.6.6,2.12,2.12,0,0,0,0,1.8.9.9,0,0,0,.6.6,2.92,2.92,0,0,0,.9.2,3,3,0,0,0,1-.2V52.4Z"></path><path class="b" d="M90.9,55.1l-1-1.5H88.7v1.5H87.5V49.8h2.3A3.73,3.73,0,0,1,91,50a2.7,2.7,0,0,1,.8.7,1.82,1.82,0,0,1,0,2,1.56,1.56,0,0,1-.8.6L92.2,55l-1.3.1Zm-.3-4a1.08,1.08,0,0,0-.8-.2h-1v1.9h1a1.55,1.55,0,0,0,.8-.2.91.91,0,0,0,.3-.7C90.9,51.5,90.8,51.2,90.6,51.1Z"></path><path class="b" d="M96.6,54H94.1l-.5,1.1H92.3l2.4-5.3H96l2.4,5.3H97.1Zm-.4-.9-.8-2-.8,2Z"></path><path class="b" d="M102.5,50.1a2.7,2.7,0,0,1,.8.7,1.82,1.82,0,0,1,0,2,2.7,2.7,0,0,1-.8.7,2.34,2.34,0,0,1-1.2.2h-1.1v1.5H99V49.9h2.3A1.72,1.72,0,0,1,102.5,50.1Zm-.5,2.3a1,1,0,0,0,0-1.4,1.08,1.08,0,0,0-.8-.2h-1v1.8h1A.72.72,0,0,0,102,52.4Z"></path><path class="b" d="M109.3,49.8v5.3h-1.2V53h-2.4v2.2h-1.2V49.9h1.2V52h2.4V49.9h1.2Z"></path><path class="b" d="M113.1,53.3v1.9h-1.2V53.3l-2.1-3.4h1.3l1.4,2.4,1.4-2.4h1.2Z"></path><path class="c" d="M12.2,39.1l3.1-7.4c-3.6.6-7.3,1-9.7.6-1.6-.3-2.8-1-2.8-2.8,0-8.3,17.3-25.3,23.4-25.3,1.8,0,3.1,2.8-2.3,15.9L20,29.3l4.2-.6c.7-.1.5,1,.3,1L19.3,31l-3.2,7.7a2.88,2.88,0,0,1-3,1.7C12.4,40.4,11.7,40,12.2,39.1Zm4-9.3L24,11.5c2.1-4.9,2.2-5.4,1.6-5.4-2.5,0-21,20.3-21,23.5a.92.92,0,0,0,1,.9C8.1,30.5,12.3,30.2,16.2,29.8Z"></path><path class="d" d="M19.6,37.5A6,6,0,0,1,25.8,32c.4,0,1.7.1,1.7,1.2,0,1.7-3.1,2.5-5.1,2.7a5.83,5.83,0,0,0-.5,2,1.53,1.53,0,0,0,1.7,1.5c3.2,0,10.9-3.9,15-6.2a.37.37,0,0,1,.5.2c.1.2.1.4-.1.5-7.2,3.8-13,6.5-16.1,6.5C20.5,40.4,19.6,39.2,19.6,37.5Zm6.9-4.2c0-.4-.3-.6-.7-.6-1.2,0-2.2,1-2.9,2.2C24.6,35,26.5,34.4,26.5,33.3Z"></path><path class="e" d="M30.7,57.6c0-3.2,3.3-8,8.2-12,.8-.7,1.6-1.2,2.3-1.8l3.4-8.4c-.9,1.4-3.5,5-5.5,5-1.3,0-1.9-.9-1.3-2.4l1.6-3.7c.1-.3-.2-.4-.5-.3s-.4.1-.6-.2a.4.4,0,0,1,.2-.6l1.8-.9a2.24,2.24,0,0,1,1-.3c.6,0,1.2.4.7,1.4l-1.8,4.4c-.2.4.1.5.3.5.8,0,2.6-2.3,4.8-5.1.7-.9,1.2-1.2,1.5-1.2.6,0,1.4.4.5,2.3l-3,7.3c4.3-2.7,8.6-4.2,14.8-6.6.2-.1.4.1.4.3s.1.4-.1.5c-6.8,2.5-11.2,4.3-15.8,7.4-3.4,8.3-7.1,16.3-11.5,16.3C31.2,59.5,30.7,58.7,30.7,57.6Zm9.9-12.1c-3.9,2.8-9,9.8-9,12.4,0,.4.2.9.7.9C34.4,58.8,38.1,52,40.6,45.5Z"></path><path class="f" d="M56.9,37.5A6,6,0,0,1,63.1,32c.4,0,1.7.1,1.7,1.2,0,1.7-3.1,2.5-5.1,2.7a5.83,5.83,0,0,0-.5,2,1.53,1.53,0,0,0,1.7,1.5c3.2,0,10.9-3.9,15-6.2a.37.37,0,0,1,.5.2c.1.2.1.4-.1.5-7.2,3.8-13,6.5-16.1,6.5C57.9,40.4,56.9,39.2,56.9,37.5Zm7-4.2c0-.4-.3-.6-.7-.6-1.2,0-2.2,1-2.9,2.2C62,35,63.9,34.4,63.9,33.3Z"></path><path class="g" d="M73.2,38.7a1.31,1.31,0,0,1,1.2-.7c.6,0,.9.3.5,1.3-.3.5-.2,1,.5,1,1.4,0,2.1-1.9,2.1-3.7l.1-3.5-1.4.7c-.2.1-.4.1-.6-.2a.48.48,0,0,1,.2-.6l1.8-1c.1-1.7,1.7-4,3-4,.4,0,.6.3.6.7,0,1.2-1.5,2.8-2.5,3.5,0,1.2.9,2.3.9,4.4a4.31,4.31,0,0,1-4.5,4.2C72.8,41.1,72.7,39.7,73.2,38.7Z"></path><path class="h" d="M113.2,7.2H95.4v.1A21,21,0,0,0,82.6,3,21.23,21.23,0,0,0,62.1,30H64a17.91,17.91,0,0,1-.9-5.7A18.6,18.6,0,1,1,81.7,42.9H72.2a21.34,21.34,0,0,0,25.2-34h13.1a3.9,3.9,0,0,1,3.9,3.9l2,22.8a3.9,3.9,0,0,1-3.9,3.9l-14.1.6a13,13,0,0,1-1.5,1h16.3a5.16,5.16,0,0,0,5.2-5.2V12.4A5.23,5.23,0,0,0,113.2,7.2Z"></path><path class="i" d="M50.8,8.9l14.1-.6a13,13,0,0,1,1.5-1H50.1a5.16,5.16,0,0,0-5.2,5.2V27.3a9.15,9.15,0,0,1,3.4,2.4L46.8,12.9A4,4,0,0,1,50.8,8.9Z"></path><path class="j" d="M97.6,6.2V5.4a1.69,1.69,0,0,1,1.7-1.7h6.1a1.69,1.69,0,0,1,1.7,1.7v.8h1.1V4.3A2.22,2.22,0,0,0,106,2.1H98.7a2.22,2.22,0,0,0-2.2,2.2V6.2Z"></path><g class="k"><path class="l" d="M84.2,15.3a11.52,11.52,0,0,1,.5,5.8,5.26,5.26,0,0,1,1.4,1.2,11.3,11.3,0,0,0,.1-7.7A10.69,10.69,0,0,0,72.4,8.3c-.3.1-.7.3-1,.4A10.52,10.52,0,0,1,84.2,15.3Z"></path></g><g class="m"><path class="n" d="M74.1,17.6A11.19,11.19,0,0,1,79.4,20a8.65,8.65,0,0,1,1.7-.7,10.93,10.93,0,0,0-6.6-3.9,10.61,10.61,0,0,0-12.3,8.9,3.75,3.75,0,0,0-.1,1A10.63,10.63,0,0,1,74.1,17.6Z"></path></g><g class="o"><path class="p" d="M90.5,30.9a11.19,11.19,0,0,1-5.3-2.4,8.65,8.65,0,0,1-1.7.7,10.93,10.93,0,0,0,6.6,3.9,10.61,10.61,0,0,0,12.3-8.9,3.75,3.75,0,0,0,.1-1A10.63,10.63,0,0,1,90.5,30.9Z"></path></g><g class="q"><path class="r" d="M71.6,26.9a10.7,10.7,0,0,1,5.2-2.6,6.36,6.36,0,0,1,.6-1.8,10.55,10.55,0,0,0-7.2,2.8,10.76,10.76,0,0,0-.8,15.2c.2.3.5.5.7.8A10.79,10.79,0,0,1,71.6,26.9Z"></path></g><g class="s"><path class="t" d="M92.2,22.5A10.7,10.7,0,0,1,87,25.1a6.36,6.36,0,0,1-.6,1.8,10.55,10.55,0,0,0,7.2-2.8,10.76,10.76,0,0,0,.8-15.2c-.2-.3-.5-.5-.7-.8A10.91,10.91,0,0,1,92.2,22.5Z"></path></g></svg> 